<svg width="36" height="36" viewBox="0 0 36 36" fill="none" xmlns="http://www.w3.org/2000/svg">
    <path d="M30.7917 3H4.20833C3.54099 3 3 3.55964 3 4.25V31.75C3 32.4404 3.54099 33 4.20833 33H30.7917C31.459 33 32 32.4404 32 31.75V4.25C32 3.55964 31.459 3 30.7917 3Z" stroke="currentColor" stroke-width="2" stroke-linecap="round" stroke-linejoin="round"/>
    <path d="M15 15V27" stroke="currentColor" stroke-width="2" stroke-linecap="round" stroke-linejoin="round"/>
    <path d="M10 15V27" stroke="currentColor" stroke-width="2" stroke-linecap="round" stroke-linejoin="round"/>
    <path d="M15 20.25C15 18.8576 15.5268 17.5223 16.4645 16.5377C17.4021 15.5531 18.6739 15 20 15C21.3261 15 22.5979 15.5531 23.5355 16.5377C24.4732 17.5223 25 18.8576 25 20.25V27" stroke="currentColor" stroke-width="2" stroke-linecap="round" stroke-linejoin="round"/>
    <path d="M10 8.5C10.8284 8.5 11.5 9.17157 11.5 10C11.5 10.8284 10.8284 11.5 10 11.5C9.17157 11.5 8.5 10.8284 8.5 10C8.5 9.17157 9.17157 8.5 10 8.5Z" fill="currentColor" stroke="currentColor"/>
</svg>
