<svg width="218" height="227" viewBox="0 0 218 227" fill="none" xmlns="http://www.w3.org/2000/svg">
<path d="M148.969 198.625H177.344C179.225 198.625 181.029 197.878 182.36 196.547C183.69 195.217 184.438 193.413 184.438 191.531V78.0312L134.781 28.375H49.6562C47.7749 28.375 45.9705 29.1224 44.6402 30.4527C43.3099 31.783 42.5625 33.5874 42.5625 35.4688V99.3125" stroke="#4061E3" stroke-width="16" stroke-linecap="round" stroke-linejoin="round"/>
<path d="M134.781 28.375V78.0312H184.438" stroke="#4061E3" stroke-width="16" stroke-linecap="round" stroke-linejoin="round"/>
<path d="M42.5625 170.25H56.75C61.4534 170.25 65.9643 168.382 69.2901 165.056C72.6159 161.73 74.4844 157.219 74.4844 152.516C74.4844 147.812 72.6159 143.301 69.2901 139.976C65.9643 136.65 61.4534 134.781 56.75 134.781H42.5625V184.438" stroke="#4061E3" stroke-width="16" stroke-linecap="round" stroke-linejoin="round"/>
<path d="M95.7656 134.781L113.5 163.156L131.234 134.781" stroke="#4061E3" stroke-width="16" stroke-linecap="round" stroke-linejoin="round"/>
<path d="M113.5 163.156V184.438" stroke="#4061E3" stroke-width="16" stroke-linecap="round" stroke-linejoin="round"/>
</svg>
